<mxfile modified="2023-11-20T14:39:13.230Z" host="Electron" agent="Mozilla/5.0 (Macintosh; Intel Mac OS X 10_15_7) AppleWebKit/537.36 (KHTML, like Gecko) draw.io/22.1.2 Chrome/114.0.5735.289 Electron/25.9.4 Safari/537.36" etag="dlu7rrrWkIPfzg3N4L7H" version="22.1.2" type="device">
  <diagram id="Ht1M8jgEwFfnCIfOTk4-" name="Page-1">
    <mxGraphModel dx="1234" dy="1149" grid="1" gridSize="10" guides="1" tooltips="1" connect="1" arrows="1" fold="1" page="1" pageScale="1" pageWidth="1169" pageHeight="827" math="0" shadow="0">
      <root>
        <mxCell id="0" />
        <mxCell id="1" parent="0" />
        <mxCell id="AUVhwuvns1NWWhDilMW8-63" value="Availability Zone" style="fillColor=none;strokeColor=#147EBA;dashed=1;verticalAlign=top;fontStyle=0;fontColor=#147EBA;whiteSpace=wrap;html=1;" parent="1" vertex="1">
          <mxGeometry x="477" y="470" width="643" height="230" as="geometry" />
        </mxCell>
        <mxCell id="AUVhwuvns1NWWhDilMW8-62" value="Availability Zone" style="fillColor=none;strokeColor=#147EBA;dashed=1;verticalAlign=top;fontStyle=0;fontColor=#147EBA;whiteSpace=wrap;html=1;" parent="1" vertex="1">
          <mxGeometry x="477" y="176" width="643" height="254" as="geometry" />
        </mxCell>
        <mxCell id="AUVhwuvns1NWWhDilMW8-2" value="&lt;font color=&quot;#0c0d0d&quot;&gt;us-east-1&lt;/font&gt;" style="sketch=0;outlineConnect=0;gradientColor=none;html=1;whiteSpace=wrap;fontSize=12;fontStyle=0;shape=mxgraph.aws4.group;grIcon=mxgraph.aws4.group_aws_cloud;strokeColor=#101212;fillColor=none;verticalAlign=top;align=left;spacingLeft=30;fontColor=#AAB7B8;dashed=0;" parent="1" vertex="1">
          <mxGeometry x="243" y="111" width="920" height="657" as="geometry" />
        </mxCell>
        <mxCell id="AUVhwuvns1NWWhDilMW8-4" value="&lt;font color=&quot;#7aa117&quot;&gt;VPC - 10.1.0.0/16&lt;/font&gt;" style="sketch=0;outlineConnect=0;gradientColor=none;html=1;whiteSpace=wrap;fontSize=12;fontStyle=1;shape=mxgraph.aws4.group;grIcon=mxgraph.aws4.group_vpc;strokeColor=#7aa117;fillColor=none;verticalAlign=top;align=left;spacingLeft=30;fontColor=#B6BABF;dashed=0;" parent="1" vertex="1">
          <mxGeometry x="363" y="151" width="770" height="560" as="geometry" />
        </mxCell>
        <mxCell id="AUVhwuvns1NWWhDilMW8-6" value="Public subnet -&amp;nbsp;10.1.10.0/24" style="points=[[0,0],[0.25,0],[0.5,0],[0.75,0],[1,0],[1,0.25],[1,0.5],[1,0.75],[1,1],[0.75,1],[0.5,1],[0.25,1],[0,1],[0,0.75],[0,0.5],[0,0.25]];outlineConnect=0;gradientColor=none;html=1;whiteSpace=wrap;fontSize=12;fontStyle=0;container=1;pointerEvents=0;collapsible=0;recursiveResize=0;shape=mxgraph.aws4.group;grIcon=mxgraph.aws4.group_security_group;grStroke=0;strokeColor=#7AA116;fillColor=#F2F6E8;verticalAlign=top;align=left;spacingLeft=30;fontColor=#248814;dashed=0;" parent="1" vertex="1">
          <mxGeometry x="493" y="191" width="250" height="229.5" as="geometry" />
        </mxCell>
        <mxCell id="AUVhwuvns1NWWhDilMW8-12" value="Web server -&amp;nbsp;&lt;br&gt;2 t3.large" style="sketch=0;pointerEvents=1;shadow=0;dashed=0;html=1;strokeColor=none;fillColor=#505050;labelPosition=center;verticalLabelPosition=bottom;verticalAlign=top;outlineConnect=0;align=center;shape=mxgraph.office.servers.web_server_blue;" parent="AUVhwuvns1NWWhDilMW8-6" vertex="1">
          <mxGeometry x="147" y="40" width="48" height="57" as="geometry" />
        </mxCell>
        <mxCell id="AUVhwuvns1NWWhDilMW8-7" value="Public subnet -&amp;nbsp;10.1.11.0/24" style="points=[[0,0],[0.25,0],[0.5,0],[0.75,0],[1,0],[1,0.25],[1,0.5],[1,0.75],[1,1],[0.75,1],[0.5,1],[0.25,1],[0,1],[0,0.75],[0,0.5],[0,0.25]];outlineConnect=0;gradientColor=none;html=1;whiteSpace=wrap;fontSize=12;fontStyle=0;container=1;pointerEvents=0;collapsible=0;recursiveResize=0;shape=mxgraph.aws4.group;grIcon=mxgraph.aws4.group_security_group;grStroke=0;strokeColor=#7AA116;fillColor=#F2F6E8;verticalAlign=top;align=left;spacingLeft=30;fontColor=#248814;dashed=0;" parent="1" vertex="1">
          <mxGeometry x="493" y="485" width="250" height="200" as="geometry" />
        </mxCell>
        <mxCell id="AUVhwuvns1NWWhDilMW8-9" value="v" style="points=[[0,0],[0.25,0],[0.5,0],[0.75,0],[1,0],[1,0.25],[1,0.5],[1,0.75],[1,1],[0.75,1],[0.5,1],[0.25,1],[0,1],[0,0.75],[0,0.5],[0,0.25]];outlineConnect=0;gradientColor=none;html=1;whiteSpace=wrap;fontSize=12;fontStyle=0;container=1;pointerEvents=0;collapsible=0;recursiveResize=0;shape=mxgraph.aws4.group;grIcon=mxgraph.aws4.group_security_group;grStroke=0;strokeColor=#00A4A6;fillColor=#E6F6F7;verticalAlign=top;align=left;spacingLeft=30;fontColor=#147EBA;dashed=0;" parent="1" vertex="1">
          <mxGeometry x="863" y="191" width="240" height="200" as="geometry" />
        </mxCell>
        <mxCell id="AUVhwuvns1NWWhDilMW8-17" value="Database&lt;br&gt;Server -&amp;nbsp;&lt;br&gt;Main&lt;br&gt;db.m5.4xlarge" style="sketch=0;pointerEvents=1;shadow=0;dashed=0;html=1;strokeColor=none;fillColor=#505050;labelPosition=center;verticalLabelPosition=bottom;verticalAlign=top;outlineConnect=0;align=center;shape=mxgraph.office.servers.database_server_blue;" parent="AUVhwuvns1NWWhDilMW8-9" vertex="1">
          <mxGeometry x="170" y="40" width="43" height="56" as="geometry" />
        </mxCell>
        <mxCell id="AUVhwuvns1NWWhDilMW8-28" style="edgeStyle=orthogonalEdgeStyle;rounded=0;orthogonalLoop=1;jettySize=auto;html=1;" parent="1" source="AUVhwuvns1NWWhDilMW8-10" edge="1">
          <mxGeometry relative="1" as="geometry">
            <mxPoint x="753" y="401" as="targetPoint" />
          </mxGeometry>
        </mxCell>
        <mxCell id="AUVhwuvns1NWWhDilMW8-10" value="Private subnet -&amp;nbsp;10.1.21.0/24" style="points=[[0,0],[0.25,0],[0.5,0],[0.75,0],[1,0],[1,0.25],[1,0.5],[1,0.75],[1,1],[0.75,1],[0.5,1],[0.25,1],[0,1],[0,0.75],[0,0.5],[0,0.25]];outlineConnect=0;gradientColor=none;html=1;whiteSpace=wrap;fontSize=12;fontStyle=0;container=1;pointerEvents=0;collapsible=0;recursiveResize=0;shape=mxgraph.aws4.group;grIcon=mxgraph.aws4.group_security_group;grStroke=0;strokeColor=#00A4A6;fillColor=#E6F6F7;verticalAlign=top;align=left;spacingLeft=30;fontColor=#147EBA;dashed=0;" parent="1" vertex="1">
          <mxGeometry x="863" y="485" width="240" height="200" as="geometry" />
        </mxCell>
        <mxCell id="AUVhwuvns1NWWhDilMW8-13" value="Web server -&amp;nbsp;&lt;br&gt;2 t3.large" style="sketch=0;pointerEvents=1;shadow=0;dashed=0;html=1;strokeColor=none;fillColor=#505050;labelPosition=center;verticalLabelPosition=bottom;verticalAlign=top;outlineConnect=0;align=center;shape=mxgraph.office.servers.web_server_blue;" parent="1" vertex="1">
          <mxGeometry x="640" y="521" width="48" height="57" as="geometry" />
        </mxCell>
        <mxCell id="AUVhwuvns1NWWhDilMW8-21" style="edgeStyle=orthogonalEdgeStyle;rounded=0;orthogonalLoop=1;jettySize=auto;html=1;" parent="1" source="AUVhwuvns1NWWhDilMW8-15" target="AUVhwuvns1NWWhDilMW8-16" edge="1">
          <mxGeometry relative="1" as="geometry" />
        </mxCell>
        <mxCell id="AUVhwuvns1NWWhDilMW8-15" value="Application server -&amp;nbsp;&lt;br&gt;2 c5.large" style="sketch=0;pointerEvents=1;shadow=0;dashed=0;html=1;strokeColor=none;fillColor=#505050;labelPosition=center;verticalLabelPosition=bottom;verticalAlign=top;outlineConnect=0;align=center;shape=mxgraph.office.servers.application_server_blue;" parent="1" vertex="1">
          <mxGeometry x="913" y="522" width="46" height="56" as="geometry" />
        </mxCell>
        <mxCell id="AUVhwuvns1NWWhDilMW8-16" value="Database&lt;br&gt;Server -&amp;nbsp;&lt;br&gt;Replica&lt;br&gt;db.m5.4xlarge" style="sketch=0;pointerEvents=1;shadow=0;dashed=0;html=1;strokeColor=none;fillColor=#505050;labelPosition=center;verticalLabelPosition=bottom;verticalAlign=top;outlineConnect=0;align=center;shape=mxgraph.office.servers.database_server_blue;" parent="1" vertex="1">
          <mxGeometry x="1033" y="522" width="43" height="56" as="geometry" />
        </mxCell>
        <mxCell id="AUVhwuvns1NWWhDilMW8-34" style="edgeStyle=orthogonalEdgeStyle;rounded=0;orthogonalLoop=1;jettySize=auto;html=1;" parent="1" target="AUVhwuvns1NWWhDilMW8-29" edge="1">
          <mxGeometry relative="1" as="geometry">
            <mxPoint x="720" y="450" as="sourcePoint" />
          </mxGeometry>
        </mxCell>
        <mxCell id="AUVhwuvns1NWWhDilMW8-20" style="edgeStyle=orthogonalEdgeStyle;rounded=0;orthogonalLoop=1;jettySize=auto;html=1;" parent="1" source="AUVhwuvns1NWWhDilMW8-14" target="AUVhwuvns1NWWhDilMW8-17" edge="1">
          <mxGeometry relative="1" as="geometry" />
        </mxCell>
        <mxCell id="AUVhwuvns1NWWhDilMW8-14" value="Application server -&amp;nbsp;&lt;br&gt;2 c5.large" style="sketch=0;pointerEvents=1;shadow=0;dashed=0;html=1;strokeColor=none;fillColor=#505050;labelPosition=center;verticalLabelPosition=bottom;verticalAlign=top;outlineConnect=0;align=center;shape=mxgraph.office.servers.application_server_blue;" parent="1" vertex="1">
          <mxGeometry x="913" y="231" width="46" height="56" as="geometry" />
        </mxCell>
        <mxCell id="AUVhwuvns1NWWhDilMW8-24" style="edgeStyle=orthogonalEdgeStyle;rounded=0;orthogonalLoop=1;jettySize=auto;html=1;" parent="1" source="AUVhwuvns1NWWhDilMW8-17" target="AUVhwuvns1NWWhDilMW8-16" edge="1">
          <mxGeometry relative="1" as="geometry">
            <Array as="points">
              <mxPoint x="1110" y="259" />
              <mxPoint x="1110" y="550" />
            </Array>
          </mxGeometry>
        </mxCell>
        <mxCell id="AUVhwuvns1NWWhDilMW8-39" style="edgeStyle=orthogonalEdgeStyle;rounded=0;orthogonalLoop=1;jettySize=auto;html=1;" parent="1" source="AUVhwuvns1NWWhDilMW8-25" target="AUVhwuvns1NWWhDilMW8-37" edge="1">
          <mxGeometry relative="1" as="geometry" />
        </mxCell>
        <mxCell id="AUVhwuvns1NWWhDilMW8-25" value="NAT gateway" style="sketch=0;outlineConnect=0;fontColor=#232F3E;gradientColor=none;fillColor=#8C4FFF;strokeColor=none;dashed=0;verticalLabelPosition=bottom;verticalAlign=top;align=center;html=1;fontSize=12;fontStyle=0;aspect=fixed;pointerEvents=1;shape=mxgraph.aws4.nat_gateway;" parent="1" vertex="1">
          <mxGeometry x="523" y="311" width="38" height="38" as="geometry" />
        </mxCell>
        <mxCell id="AUVhwuvns1NWWhDilMW8-26" style="edgeStyle=orthogonalEdgeStyle;rounded=0;orthogonalLoop=1;jettySize=auto;html=1;" parent="1" source="AUVhwuvns1NWWhDilMW8-9" target="AUVhwuvns1NWWhDilMW8-25" edge="1">
          <mxGeometry relative="1" as="geometry">
            <Array as="points">
              <mxPoint x="833" y="291" />
              <mxPoint x="833" y="401" />
              <mxPoint x="542" y="401" />
            </Array>
          </mxGeometry>
        </mxCell>
        <mxCell id="AUVhwuvns1NWWhDilMW8-29" value="" style="sketch=0;outlineConnect=0;fontColor=#232F3E;gradientColor=none;fillColor=#8C4FFF;strokeColor=none;dashed=0;verticalLabelPosition=bottom;verticalAlign=top;align=center;html=1;fontSize=12;fontStyle=0;aspect=fixed;pointerEvents=1;shape=mxgraph.aws4.network_load_balancer;" parent="1" vertex="1">
          <mxGeometry x="773" y="431" width="39" height="39" as="geometry" />
        </mxCell>
        <mxCell id="AUVhwuvns1NWWhDilMW8-33" style="edgeStyle=orthogonalEdgeStyle;rounded=0;orthogonalLoop=1;jettySize=auto;html=1;" parent="1" source="AUVhwuvns1NWWhDilMW8-29" edge="1">
          <mxGeometry relative="1" as="geometry">
            <mxPoint x="880" y="450" as="targetPoint" />
          </mxGeometry>
        </mxCell>
        <mxCell id="AUVhwuvns1NWWhDilMW8-35" value="Application&lt;br&gt;Load Balancer" style="sketch=0;outlineConnect=0;fontColor=#232F3E;gradientColor=none;fillColor=#8C4FFF;strokeColor=none;dashed=0;verticalLabelPosition=bottom;verticalAlign=top;align=center;html=1;fontSize=12;fontStyle=0;aspect=fixed;pointerEvents=1;shape=mxgraph.aws4.application_load_balancer;" parent="1" vertex="1">
          <mxGeometry x="403" y="431" width="51" height="51" as="geometry" />
        </mxCell>
        <mxCell id="AUVhwuvns1NWWhDilMW8-36" style="edgeStyle=orthogonalEdgeStyle;rounded=0;orthogonalLoop=1;jettySize=auto;html=1;entryX=0.002;entryY=0.524;entryDx=0;entryDy=0;entryPerimeter=0;" parent="1" source="AUVhwuvns1NWWhDilMW8-35" target="AUVhwuvns1NWWhDilMW8-18" edge="1">
          <mxGeometry relative="1" as="geometry" />
        </mxCell>
        <mxCell id="AUVhwuvns1NWWhDilMW8-38" style="edgeStyle=orthogonalEdgeStyle;rounded=0;orthogonalLoop=1;jettySize=auto;html=1;" parent="1" source="AUVhwuvns1NWWhDilMW8-37" target="AUVhwuvns1NWWhDilMW8-35" edge="1">
          <mxGeometry relative="1" as="geometry" />
        </mxCell>
        <mxCell id="AUVhwuvns1NWWhDilMW8-37" value="Internet&lt;br&gt;gateway" style="sketch=0;outlineConnect=0;fontColor=#232F3E;gradientColor=none;fillColor=#8C4FFF;strokeColor=none;dashed=0;verticalLabelPosition=bottom;verticalAlign=top;align=center;html=1;fontSize=12;fontStyle=0;aspect=fixed;pointerEvents=1;shape=mxgraph.aws4.internet_gateway;" parent="1" vertex="1">
          <mxGeometry x="283" y="431" width="50" height="50" as="geometry" />
        </mxCell>
        <mxCell id="AUVhwuvns1NWWhDilMW8-42" value="Users" style="sketch=0;outlineConnect=0;fontColor=#232F3E;gradientColor=none;strokeColor=#232F3E;fillColor=#ffffff;dashed=0;verticalLabelPosition=bottom;verticalAlign=top;align=center;html=1;fontSize=12;fontStyle=0;aspect=fixed;shape=mxgraph.aws4.resourceIcon;resIcon=mxgraph.aws4.users;" parent="1" vertex="1">
          <mxGeometry x="4" y="111" width="70" height="70" as="geometry" />
        </mxCell>
        <mxCell id="AUVhwuvns1NWWhDilMW8-52" style="edgeStyle=orthogonalEdgeStyle;rounded=0;orthogonalLoop=1;jettySize=auto;html=1;" parent="1" source="AUVhwuvns1NWWhDilMW8-43" target="AUVhwuvns1NWWhDilMW8-51" edge="1">
          <mxGeometry relative="1" as="geometry" />
        </mxCell>
        <mxCell id="AUVhwuvns1NWWhDilMW8-43" value="Amazon Route 53" style="sketch=0;points=[[0,0,0],[0.25,0,0],[0.5,0,0],[0.75,0,0],[1,0,0],[0,1,0],[0.25,1,0],[0.5,1,0],[0.75,1,0],[1,1,0],[0,0.25,0],[0,0.5,0],[0,0.75,0],[1,0.25,0],[1,0.5,0],[1,0.75,0]];outlineConnect=0;fontColor=#232F3E;fillColor=#8C4FFF;strokeColor=#ffffff;dashed=0;verticalLabelPosition=bottom;verticalAlign=top;align=center;html=1;fontSize=12;fontStyle=0;aspect=fixed;shape=mxgraph.aws4.resourceIcon;resIcon=mxgraph.aws4.route_53;" parent="1" vertex="1">
          <mxGeometry x="74" y="257" width="68" height="68" as="geometry" />
        </mxCell>
        <mxCell id="AUVhwuvns1NWWhDilMW8-44" style="edgeStyle=orthogonalEdgeStyle;rounded=0;orthogonalLoop=1;jettySize=auto;html=1;entryX=0;entryY=0.5;entryDx=0;entryDy=0;entryPerimeter=0;" parent="1" source="AUVhwuvns1NWWhDilMW8-42" target="AUVhwuvns1NWWhDilMW8-43" edge="1">
          <mxGeometry relative="1" as="geometry" />
        </mxCell>
        <mxCell id="AUVhwuvns1NWWhDilMW8-47" value="Clients" style="sketch=0;outlineConnect=0;fontColor=#232F3E;gradientColor=none;strokeColor=#232F3E;fillColor=#ffffff;dashed=0;verticalLabelPosition=bottom;verticalAlign=top;align=center;html=1;fontSize=12;fontStyle=0;aspect=fixed;shape=mxgraph.aws4.resourceIcon;resIcon=mxgraph.aws4.client;" parent="1" vertex="1">
          <mxGeometry x="174" y="116" width="60" height="60" as="geometry" />
        </mxCell>
        <mxCell id="AUVhwuvns1NWWhDilMW8-50" style="edgeStyle=orthogonalEdgeStyle;rounded=0;orthogonalLoop=1;jettySize=auto;html=1;entryX=1;entryY=0.5;entryDx=0;entryDy=0;entryPerimeter=0;" parent="1" source="AUVhwuvns1NWWhDilMW8-47" target="AUVhwuvns1NWWhDilMW8-43" edge="1">
          <mxGeometry relative="1" as="geometry">
            <Array as="points">
              <mxPoint x="204" y="291" />
            </Array>
          </mxGeometry>
        </mxCell>
        <mxCell id="AUVhwuvns1NWWhDilMW8-53" style="edgeStyle=orthogonalEdgeStyle;rounded=0;orthogonalLoop=1;jettySize=auto;html=1;" parent="1" source="AUVhwuvns1NWWhDilMW8-51" target="AUVhwuvns1NWWhDilMW8-37" edge="1">
          <mxGeometry relative="1" as="geometry" />
        </mxCell>
        <mxCell id="AUVhwuvns1NWWhDilMW8-56" style="edgeStyle=orthogonalEdgeStyle;rounded=0;orthogonalLoop=1;jettySize=auto;html=1;" parent="1" source="AUVhwuvns1NWWhDilMW8-51" target="AUVhwuvns1NWWhDilMW8-54" edge="1">
          <mxGeometry relative="1" as="geometry" />
        </mxCell>
        <mxCell id="AUVhwuvns1NWWhDilMW8-51" value="Amazon CloudFront" style="sketch=0;points=[[0,0,0],[0.25,0,0],[0.5,0,0],[0.75,0,0],[1,0,0],[0,1,0],[0.25,1,0],[0.5,1,0],[0.75,1,0],[1,1,0],[0,0.25,0],[0,0.5,0],[0,0.75,0],[1,0.25,0],[1,0.5,0],[1,0.75,0]];outlineConnect=0;fontColor=#232F3E;fillColor=#8C4FFF;strokeColor=#ffffff;dashed=0;verticalLabelPosition=bottom;verticalAlign=top;align=center;html=1;fontSize=12;fontStyle=0;aspect=fixed;shape=mxgraph.aws4.resourceIcon;resIcon=mxgraph.aws4.cloudfront;" parent="1" vertex="1">
          <mxGeometry x="73" y="421.5" width="70" height="70" as="geometry" />
        </mxCell>
        <mxCell id="AUVhwuvns1NWWhDilMW8-54" value="Amazon Simple&lt;br&gt;Storage Service&lt;br&gt;(S3)" style="sketch=0;outlineConnect=0;fontColor=#232F3E;gradientColor=none;fillColor=#7AA116;strokeColor=none;dashed=0;verticalLabelPosition=bottom;verticalAlign=top;align=center;html=1;fontSize=12;fontStyle=0;aspect=fixed;pointerEvents=1;shape=mxgraph.aws4.bucket;" parent="1" vertex="1">
          <mxGeometry x="70" y="578" width="75" height="78" as="geometry" />
        </mxCell>
        <mxCell id="AUVhwuvns1NWWhDilMW8-60" value="&lt;h5 style=&quot;border-width: 0px; border-style: solid; box-sizing: border-box; border-color: var(--chakra-colors-gray-200); overflow-wrap: break-word; outline-color: var(--chakra-colors-blue-500); margin-top: 0px; margin-right: var(--chakra-space-2); margin-bottom: 0px; margin-left: 0px; font-family: &amp;quot;Open Sans&amp;quot;, sans-serif; line-height: var(--chakra-lineHeights-tall); text-align: start; background-color: rgb(246, 246, 246); font-size: 18px;&quot; class=&quot;chakra-heading css-16yofvr&quot;&gt;&lt;font color=&quot;#9e9e9e&quot; style=&quot;font-size: 18px;&quot;&gt;Udacity - Design, Provision and Monitor AWS Infrastructure at Scale - Part 1&lt;/font&gt;&lt;/h5&gt;&lt;div style=&quot;font-size: 18px;&quot;&gt;&lt;font color=&quot;#636363&quot;&gt;Nguyen Thanh Duong - Nov 16 2023&lt;/font&gt;&lt;/div&gt;" style="text;html=1;strokeColor=none;fillColor=none;align=center;verticalAlign=middle;whiteSpace=wrap;rounded=0;" parent="1" vertex="1">
          <mxGeometry x="350" y="30" width="670" height="30" as="geometry" />
        </mxCell>
        <mxCell id="AUVhwuvns1NWWhDilMW8-19" value="Auto Scaling&#xa;group" style="rounded=1;arcSize=10;fillColor=none;gradientColor=none;strokeWidth=1;strokeColor=#050505;" parent="1" vertex="1">
          <mxGeometry x="881.25" y="221" width="109.5" height="450" as="geometry" />
        </mxCell>
        <mxCell id="AUVhwuvns1NWWhDilMW8-18" value="Auto Scaling&#xa;group" style="rounded=1;arcSize=10;fillColor=none;gradientColor=none;strokeWidth=1;strokeColor=#050505;" parent="1" vertex="1">
          <mxGeometry x="600" y="221" width="118.75" height="450" as="geometry" />
        </mxCell>
      </root>
    </mxGraphModel>
  </diagram>
</mxfile>
